<svg width="183" height="68" viewBox="0 0 183 68" fill="none" xmlns="http://www.w3.org/2000/svg">
<mask id="mask0_18_118" style="mask-type:alpha" maskUnits="userSpaceOnUse" x="0" y="0" width="183" height="68">
<rect width="183" height="68" fill="#D9D9D9"/>
</mask>
<g mask="url(#mask0_18_118)">
<path d="M-9 28.5V43.5L-0.5 83C14.6667 88.5 46.1 99.8 50.5 101C56 102.5 104.5 110.5 107 111.5C109 112.3 177.5 87.1667 211.5 74.5L200.5 32.5L156.5 25.5L112.5 21.5L96 23.5L70.5 15L-9 28.5Z" fill="url(#paint0_linear_18_118)"/>
<path d="M36.5 40L18 67.5L111 70L89.5 47.5H87L76.5 31.5H71.5L58 12L43 40H36.5Z" fill="url(#paint1_linear_18_118)"/>
<path d="M99.5 38L81 65.5L174 68L152.5 45.5H150L139.5 29.5H134.5L121 10L106 38H99.5Z" fill="url(#paint2_linear_18_118)"/>
<path d="M142.876 44.7586L120 78.8965L235 82L208.414 54.069H205.323L192.339 34.2069H186.156L169.462 10L150.914 44.7586H142.876Z" fill="url(#paint3_linear_18_118)"/>
<path d="M-10.1237 39.7586L-33 73.8965L82 77L55.414 49.069H52.3226L39.3387 29.2069H33.1559L16.4624 5L-2.08602 39.7586H-10.1237Z" fill="url(#paint4_linear_18_118)"/>
<path d="M35.0095 44.4835C35.1156 43.946 35.8844 43.946 35.9905 44.4835L41.0113 69.9031C41.0723 70.2122 40.8358 70.5 40.5207 70.5H30.4793C30.1642 70.5 29.9277 70.2122 29.9887 69.9031L35.0095 44.4835Z" fill="url(#paint5_linear_18_118)"/>
<path d="M28.0095 49.4835C28.1156 48.946 28.8844 48.946 28.9905 49.4835L34.0113 74.9031C34.0723 75.2122 33.8358 75.5 33.5207 75.5H23.4793C23.1642 75.5 22.9277 75.2122 22.9887 74.9031L28.0095 49.4835Z" fill="url(#paint6_linear_18_118)"/>
<path d="M43.0125 49.1391C43.1307 48.6206 43.8693 48.6206 43.9875 49.1391L49.8559 74.8889C49.9272 75.2019 49.6894 75.5 49.3684 75.5H37.6316C37.3106 75.5 37.0728 75.2019 37.1441 74.8889L43.0125 49.1391Z" fill="url(#paint7_linear_18_118)"/>
<path d="M52.0125 46.1391C52.1307 45.6206 52.8693 45.6206 52.9875 46.1391L58.8559 71.8889C58.9272 72.2019 58.6894 72.5 58.3684 72.5H46.6316C46.3106 72.5 46.0728 72.2019 46.1441 71.8889L52.0125 46.1391Z" fill="url(#paint8_linear_18_118)"/>
<path d="M59.0125 47.1391C59.1307 46.6206 59.8693 46.6206 59.9875 47.1391L65.8559 72.8889C65.9272 73.2019 65.6894 73.5 65.3684 73.5H53.6316C53.3106 73.5 53.0728 73.2019 53.1441 72.8889L59.0125 47.1391Z" fill="url(#paint9_linear_18_118)"/>
<path d="M66.0125 49.1391C66.1307 48.6206 66.8693 48.6206 66.9875 49.1391L72.8559 74.8889C72.9272 75.2019 72.6894 75.5 72.3684 75.5H60.6316C60.3106 75.5 60.0728 75.2019 60.1441 74.8889L66.0125 49.1391Z" fill="url(#paint10_linear_18_118)"/>
<path d="M72.0125 43.1391C72.1307 42.6206 72.8693 42.6206 72.9875 43.1391L78.8559 68.8889C78.9272 69.2019 78.6894 69.5 78.3684 69.5H66.6316C66.3106 69.5 66.0728 69.2019 66.1441 68.8889L72.0125 43.1391Z" fill="url(#paint11_linear_18_118)"/>
<path d="M82.0125 47.1391C82.1307 46.6206 82.8693 46.6206 82.9875 47.1391L88.8559 72.8889C88.9272 73.2019 88.6894 73.5 88.3684 73.5H76.6316C76.3106 73.5 76.0728 73.2019 76.1441 72.8889L82.0125 47.1391Z" fill="url(#paint12_linear_18_118)"/>
<path d="M91.0125 51.1391C91.1307 50.6206 91.8693 50.6206 91.9875 51.1391L97.8559 76.8889C97.9272 77.2019 97.6894 77.5 97.3684 77.5H85.6316C85.3106 77.5 85.0728 77.2019 85.1441 76.8889L91.0125 51.1391Z" fill="url(#paint13_linear_18_118)"/>
<path d="M100.012 46.1391C100.131 45.6206 100.869 45.6206 100.988 46.1391L106.856 71.8889C106.927 72.2019 106.689 72.5 106.368 72.5H94.6316C94.3106 72.5 94.0728 72.2019 94.1441 71.8889L100.012 46.1391Z" fill="url(#paint14_linear_18_118)"/>
<path d="M106.012 51.1391C106.131 50.6206 106.869 50.6206 106.988 51.1391L112.856 76.8889C112.927 77.2019 112.689 77.5 112.368 77.5H100.632C100.311 77.5 100.073 77.2019 100.144 76.8889L106.012 51.1391Z" fill="url(#paint15_linear_18_118)"/>
<path d="M111.012 53.1391C111.131 52.6206 111.869 52.6206 111.988 53.1391L117.856 78.8889C117.927 79.2019 117.689 79.5 117.368 79.5H105.632C105.311 79.5 105.073 79.2019 105.144 78.8889L111.012 53.1391Z" fill="url(#paint16_linear_18_118)"/>
<path d="M118.012 47.1391C118.131 46.6206 118.869 46.6206 118.988 47.1391L124.856 72.8889C124.927 73.2019 124.689 73.5 124.368 73.5H112.632C112.311 73.5 112.073 73.2019 112.144 72.8889L118.012 47.1391Z" fill="url(#paint17_linear_18_118)"/>
<path d="M126.012 51.1391C126.131 50.6206 126.869 50.6206 126.988 51.1391L132.856 76.8889C132.927 77.2019 132.689 77.5 132.368 77.5H120.632C120.311 77.5 120.073 77.2019 120.144 76.8889L126.012 51.1391Z" fill="url(#paint18_linear_18_118)"/>
<path d="M134.012 45.1391C134.131 44.6206 134.869 44.6206 134.988 45.1391L140.856 70.8889C140.927 71.2019 140.689 71.5 140.368 71.5H128.632C128.311 71.5 128.073 71.2019 128.144 70.8889L134.012 45.1391Z" fill="url(#paint19_linear_18_118)"/>
<path d="M142.012 49.1391C142.131 48.6206 142.869 48.6206 142.988 49.1391L148.856 74.8889C148.927 75.2019 148.689 75.5 148.368 75.5H136.632C136.311 75.5 136.073 75.2019 136.144 74.8889L142.012 49.1391Z" fill="url(#paint20_linear_18_118)"/>
<path d="M150.012 44.1391C150.131 43.6206 150.869 43.6206 150.988 44.1391L156.856 69.8889C156.927 70.2019 156.689 70.5 156.368 70.5H144.632C144.311 70.5 144.073 70.2019 144.144 69.8889L150.012 44.1391Z" fill="url(#paint21_linear_18_118)"/>
<path d="M158.012 47.1391C158.131 46.6206 158.869 46.6206 158.988 47.1391L164.856 72.8889C164.927 73.2019 164.689 73.5 164.368 73.5H152.632C152.311 73.5 152.073 73.2019 152.144 72.8889L158.012 47.1391Z" fill="url(#paint22_linear_18_118)"/>
<path d="M166.012 40.1391C166.131 39.6206 166.869 39.6206 166.988 40.1391L172.856 65.8889C172.927 66.2019 172.689 66.5 172.368 66.5H160.632C160.311 66.5 160.073 66.2019 160.144 65.8889L166.012 40.1391Z" fill="url(#paint23_linear_18_118)"/>
<path d="M174.012 43.1391C174.131 42.6206 174.869 42.6206 174.988 43.1391L180.856 68.8889C180.927 69.2019 180.689 69.5 180.368 69.5H168.632C168.311 69.5 168.073 69.2019 168.144 68.8889L174.012 43.1391Z" fill="url(#paint24_linear_18_118)"/>
<path d="M23.0125 47.1391C23.1307 46.6206 23.8693 46.6206 23.9875 47.1391L29.8559 72.8889C29.9272 73.2019 29.6894 73.5 29.3684 73.5H17.6316C17.3106 73.5 17.0728 73.2019 17.1441 72.8889L23.0125 47.1391Z" fill="url(#paint25_linear_18_118)"/>
<path d="M16.0125 40.1391C16.1307 39.6206 16.8693 39.6206 16.9875 40.1391L22.8559 65.8889C22.9272 66.2019 22.6894 66.5 22.3684 66.5H10.6316C10.3106 66.5 10.0728 66.2019 10.1441 65.8889L16.0125 40.1391Z" fill="url(#paint26_linear_18_118)"/>
</g>
<defs>
<linearGradient id="paint0_linear_18_118" x1="101.25" y1="15" x2="101.25" y2="111.519" gradientUnits="userSpaceOnUse">
<stop stop-color="#6A86EB"/>
<stop offset="0.553516" stop-color="#010203"/>
</linearGradient>
<linearGradient id="paint1_linear_18_118" x1="64.5" y1="12" x2="64.5" y2="70" gradientUnits="userSpaceOnUse">
<stop offset="0.290234" stop-color="#6783CA"/>
<stop offset="1" stop-color="#271B59"/>
</linearGradient>
<linearGradient id="paint2_linear_18_118" x1="127.5" y1="10" x2="127.5" y2="68" gradientUnits="userSpaceOnUse">
<stop offset="0.290234" stop-color="#6783CA"/>
<stop offset="1" stop-color="#271B59"/>
</linearGradient>
<linearGradient id="paint3_linear_18_118" x1="177.5" y1="10" x2="177.5" y2="82" gradientUnits="userSpaceOnUse">
<stop offset="0.290234" stop-color="#6783CA"/>
<stop offset="1" stop-color="#271B59"/>
</linearGradient>
<linearGradient id="paint4_linear_18_118" x1="24.5" y1="5" x2="24.5" y2="77" gradientUnits="userSpaceOnUse">
<stop offset="0.290234" stop-color="#6783CA"/>
<stop offset="1" stop-color="#271B59"/>
</linearGradient>
<linearGradient id="paint5_linear_18_118" x1="35.5" y1="42" x2="35.5" y2="80" gradientUnits="userSpaceOnUse">
<stop stop-color="#111F51"/>
<stop offset="1" stop-color="#83459F" stop-opacity="0"/>
</linearGradient>
<linearGradient id="paint6_linear_18_118" x1="28.5" y1="47" x2="28.5" y2="85" gradientUnits="userSpaceOnUse">
<stop stop-color="#111F51"/>
<stop offset="1" stop-color="#83459F" stop-opacity="0"/>
</linearGradient>
<linearGradient id="paint7_linear_18_118" x1="43.5" y1="47" x2="43.5" y2="85" gradientUnits="userSpaceOnUse">
<stop stop-color="#111F51"/>
<stop offset="1" stop-color="#83459F" stop-opacity="0"/>
</linearGradient>
<linearGradient id="paint8_linear_18_118" x1="52.5" y1="44" x2="52.5" y2="82" gradientUnits="userSpaceOnUse">
<stop stop-color="#111F51"/>
<stop offset="1" stop-color="#83459F" stop-opacity="0"/>
</linearGradient>
<linearGradient id="paint9_linear_18_118" x1="59.5" y1="45" x2="59.5" y2="83" gradientUnits="userSpaceOnUse">
<stop stop-color="#111F51"/>
<stop offset="1" stop-color="#83459F" stop-opacity="0"/>
</linearGradient>
<linearGradient id="paint10_linear_18_118" x1="66.5" y1="47" x2="66.5" y2="85" gradientUnits="userSpaceOnUse">
<stop stop-color="#111F51"/>
<stop offset="1" stop-color="#83459F" stop-opacity="0"/>
</linearGradient>
<linearGradient id="paint11_linear_18_118" x1="72.5" y1="41" x2="72.5" y2="79" gradientUnits="userSpaceOnUse">
<stop stop-color="#111F51"/>
<stop offset="1" stop-color="#83459F" stop-opacity="0"/>
</linearGradient>
<linearGradient id="paint12_linear_18_118" x1="82.5" y1="45" x2="82.5" y2="83" gradientUnits="userSpaceOnUse">
<stop stop-color="#111F51"/>
<stop offset="1" stop-color="#83459F" stop-opacity="0"/>
</linearGradient>
<linearGradient id="paint13_linear_18_118" x1="91.5" y1="49" x2="91.5" y2="87" gradientUnits="userSpaceOnUse">
<stop stop-color="#111F51"/>
<stop offset="1" stop-color="#83459F" stop-opacity="0"/>
</linearGradient>
<linearGradient id="paint14_linear_18_118" x1="100.5" y1="44" x2="100.5" y2="82" gradientUnits="userSpaceOnUse">
<stop stop-color="#111F51"/>
<stop offset="1" stop-color="#83459F" stop-opacity="0"/>
</linearGradient>
<linearGradient id="paint15_linear_18_118" x1="106.5" y1="49" x2="106.5" y2="87" gradientUnits="userSpaceOnUse">
<stop stop-color="#111F51"/>
<stop offset="1" stop-color="#83459F" stop-opacity="0"/>
</linearGradient>
<linearGradient id="paint16_linear_18_118" x1="111.5" y1="51" x2="111.5" y2="89" gradientUnits="userSpaceOnUse">
<stop stop-color="#111F51"/>
<stop offset="1" stop-color="#83459F" stop-opacity="0"/>
</linearGradient>
<linearGradient id="paint17_linear_18_118" x1="118.5" y1="45" x2="118.5" y2="83" gradientUnits="userSpaceOnUse">
<stop stop-color="#111F51"/>
<stop offset="1" stop-color="#83459F" stop-opacity="0"/>
</linearGradient>
<linearGradient id="paint18_linear_18_118" x1="126.5" y1="49" x2="126.5" y2="87" gradientUnits="userSpaceOnUse">
<stop stop-color="#111F51"/>
<stop offset="1" stop-color="#83459F" stop-opacity="0"/>
</linearGradient>
<linearGradient id="paint19_linear_18_118" x1="134.5" y1="43" x2="134.5" y2="81" gradientUnits="userSpaceOnUse">
<stop stop-color="#111F51"/>
<stop offset="1" stop-color="#83459F" stop-opacity="0"/>
</linearGradient>
<linearGradient id="paint20_linear_18_118" x1="142.5" y1="47" x2="142.5" y2="85" gradientUnits="userSpaceOnUse">
<stop stop-color="#111F51"/>
<stop offset="1" stop-color="#83459F" stop-opacity="0"/>
</linearGradient>
<linearGradient id="paint21_linear_18_118" x1="150.5" y1="42" x2="150.5" y2="80" gradientUnits="userSpaceOnUse">
<stop stop-color="#111F51"/>
<stop offset="1" stop-color="#83459F" stop-opacity="0"/>
</linearGradient>
<linearGradient id="paint22_linear_18_118" x1="158.5" y1="45" x2="158.5" y2="83" gradientUnits="userSpaceOnUse">
<stop stop-color="#111F51"/>
<stop offset="1" stop-color="#83459F" stop-opacity="0"/>
</linearGradient>
<linearGradient id="paint23_linear_18_118" x1="166.5" y1="38" x2="166.5" y2="76" gradientUnits="userSpaceOnUse">
<stop stop-color="#111F51"/>
<stop offset="1" stop-color="#83459F" stop-opacity="0"/>
</linearGradient>
<linearGradient id="paint24_linear_18_118" x1="174.5" y1="41" x2="174.5" y2="79" gradientUnits="userSpaceOnUse">
<stop stop-color="#111F51"/>
<stop offset="1" stop-color="#83459F" stop-opacity="0"/>
</linearGradient>
<linearGradient id="paint25_linear_18_118" x1="23.5" y1="45" x2="23.5" y2="83" gradientUnits="userSpaceOnUse">
<stop stop-color="#111F51"/>
<stop offset="1" stop-color="#83459F" stop-opacity="0"/>
</linearGradient>
<linearGradient id="paint26_linear_18_118" x1="16.5" y1="38" x2="16.5" y2="76" gradientUnits="userSpaceOnUse">
<stop stop-color="#111F51"/>
<stop offset="1" stop-color="#83459F" stop-opacity="0"/>
</linearGradient>
</defs>
</svg>
